<svg width="430" height="430" viewBox="0 0 430 430" fill="none" xmlns="http://www.w3.org/2000/svg">
<path d="M390.4 195.1C379.9 180.1 365.5 168.7 348.7 161.8C326.2 114.8 278.4 84.5 226.1 84.5C178.9 84.5 134.7 109.5 109.7 150C96.8 148.3 84.1 152.3 74.1 161.4C63.8 170.8 58.4 184.1 59.2 197.6C36.2 212.1 22 237.6 22 264.9C22 308.7 57.6 344.3 101.4 344.3H312.8C365.1 344.3 407.6 301.8 407.6 249.5C407.6 229.9 401.7 211.1 390.4 195.1ZM312.8 332.4H101.4C64.2 332.4 34 302.2 34 265C34 240.6 47.2 218.1 68.5 206.2C70.7 205 71.9 202.6 71.5 200.1C69.9 189.1 73.9 178 82.3 170.4C90.4 162.8 101 160 111.4 162.5C121.1 164.8 129.6 171 134.7 179.5C139.2 187 140.5 195.7 138.4 203.8C137.6 207 139.5 210.3 142.7 211.1C145.9 211.9 149.2 210 150 206.8C152.9 195.5 151.1 183.6 144.9 173.3C139.5 164.4 131.3 157.4 121.8 153.3C145 118.1 184.3 96.5 226.2 96.5C274.6 96.5 318.8 124.9 338.9 169C349.3 191.7 352.5 217.7 348.1 242.4C347.5 245.7 349.7 248.8 352.9 249.4C353.3 249.5 353.6 249.5 354 249.5C356.9 249.5 359.4 247.5 359.9 244.6C363.8 222.7 362.2 199.8 355.4 178.6C379.9 193.4 395.6 220.4 395.6 249.6C395.6 295.2 358.5 332.4 312.8 332.4ZM179.9 231L149.5 253.4L179.9 275.8C182.6 277.8 183.1 281.5 181.2 284.2C180 285.8 178.2 286.6 176.4 286.6C175.2 286.6 173.9 286.2 172.9 285.4L135.9 258.1C134.4 257 133.5 255.2 133.5 253.3C133.5 251.4 134.4 249.6 135.9 248.5L172.9 221.2C175.6 219.2 179.3 219.8 181.3 222.5C183.1 225.3 182.6 229 179.9 231ZM310.3 253.4C310.3 255.3 309.4 257.1 307.9 258.2L270.9 285.5C269.8 286.3 268.6 286.7 267.4 286.7C265.6 286.7 263.7 285.9 262.6 284.3C260.6 281.6 261.2 277.9 263.9 275.9L294.3 253.5L263.9 231.1C261.2 229.1 260.7 225.4 262.6 222.7C264.6 220 268.3 219.5 271 221.4L308 248.7C309.4 249.7 310.3 251.5 310.3 253.4ZM235.9 228L218.3 282.5C217.5 285 215.1 286.6 212.6 286.6C212 286.6 211.4 286.5 210.7 286.3C207.6 285.3 205.8 281.9 206.8 278.7L224.5 224.2C225.5 221.1 228.9 219.3 232.1 220.3C235.2 221.5 237 224.9 235.9 228Z" fill="url(#paint0_linear_2119_2582)"/>
<defs>
<linearGradient id="paint0_linear_2119_2582" x1="98.2624" y1="137.244" x2="328.693" y2="367.675" gradientUnits="userSpaceOnUse">
<stop stop-color="#CB5EEE"/>
<stop offset="1" stop-color="#4BE1EC"/>
</linearGradient>
</defs>
</svg>
